<?xml version="1.0" encoding="UTF-8" standalone="no"?>
<!-- Generator: Adobe Illustrator 18.0.0, SVG Export Plug-In . SVG Version: 6.00 Build 0)  -->

<svg
   xmlns:dc="http://purl.org/dc/elements/1.1/"
   xmlns:cc="http://creativecommons.org/ns#"
   xmlns:rdf="http://www.w3.org/1999/02/22-rdf-syntax-ns#"
   xmlns:svg="http://www.w3.org/2000/svg"
   xmlns="http://www.w3.org/2000/svg"
   xmlns:sodipodi="http://sodipodi.sourceforge.net/DTD/sodipodi-0.dtd"
   xmlns:inkscape="http://www.inkscape.org/namespaces/inkscape"
   version="1.1"
   id="Capa_1"
   x="0px"
   y="0px"
   viewBox="0 0 254.398 254.398"
   style="enable-background:new 0 0 254.398 254.398;"
   xml:space="preserve"
   sodipodi:docname="reload.svg"
   inkscape:version="0.92.5 (2060ec1f9f, 2020-04-08)"><metadata
   id="metadata39"><rdf:RDF><cc:Work
       rdf:about=""><dc:format>image/svg+xml</dc:format><dc:type
         rdf:resource="http://purl.org/dc/dcmitype/StillImage" /></cc:Work></rdf:RDF></metadata><defs
   id="defs37" /><sodipodi:namedview
   pagecolor="#ffffff"
   bordercolor="#666666"
   borderopacity="1"
   objecttolerance="10"
   gridtolerance="10"
   guidetolerance="10"
   inkscape:pageopacity="0"
   inkscape:pageshadow="2"
   inkscape:window-width="1920"
   inkscape:window-height="1176"
   id="namedview35"
   showgrid="false"
   inkscape:zoom="3.6527411"
   inkscape:cx="121.72366"
   inkscape:cy="133.22187"
   inkscape:window-x="0"
   inkscape:window-y="0"
   inkscape:window-maximized="1"
   inkscape:current-layer="Capa_1" />
<path
   d="M254.398,82.007l-28.133,62.972l-62.972-28.134l29.508-11.284c-9.065-26.295-34.042-45.245-63.377-45.245  c-28.157,0-53.501,17.781-63.065,44.246L32.284,92.248c14.732-40.772,53.771-68.166,97.141-68.166  c44.758,0,82.949,28.625,97.246,68.527L254.398,82.007z M124.974,230.316c43.371,0,82.409-27.394,97.141-68.167l-34.076-12.313  c-9.563,26.465-34.906,44.246-63.064,44.246c-29.335,0-54.312-18.95-63.377-45.245l29.508-11.284L28.133,109.42L0,172.392  l27.728-10.603C42.024,201.691,80.216,230.316,124.974,230.316z"
   id="path2"
   style="fill:#ffffff" />
<g
   id="g4">
</g>
<g
   id="g6">
</g>
<g
   id="g8">
</g>
<g
   id="g10">
</g>
<g
   id="g12">
</g>
<g
   id="g14">
</g>
<g
   id="g16">
</g>
<g
   id="g18">
</g>
<g
   id="g20">
</g>
<g
   id="g22">
</g>
<g
   id="g24">
</g>
<g
   id="g26">
</g>
<g
   id="g28">
</g>
<g
   id="g30">
</g>
<g
   id="g32">
</g>
</svg>